#!OML:ASF E:\Steps\Project 1\Capture day 1\Session 2\Subject.ASF
:FULLY-SPECIFIED
:DEGREES
309
root 5.33206 17.2016 11.6448 -142.795 0.650632 180.51
lowerback -8.96863 -0.270948 -6.55755
upperback 4.21286 0.540134 0.173083
thorax 9.52429 -0.129708 3.97646
lowerneck -3.76315 -0.212047 -0.63381
upperneck 10.6131 -0.933315 3.57196
head 4.17691 -0.446889 1.25581
rclavicle 4.77083e-015 8.34896e-015
rhumerus -32.5816 -2.32193 -79.8105
rradius 67.2499
rwrist -10.1018
rhand -5.88144 -49.3224
rfingers 7.12502
rthumb 19.9463 -438.319
lclavicle 4.77083e-015 8.34896e-015
lhumerus -8.28963 -13.7607 63.9465
lradius 42.0352
lwrist 8.12444
lhand -21.7039 -12.22
lfingers 7.12502
lthumb 4.6947 17.708
rfemur -39.6178 -0.181493 -4.65279
rtibia 59.9126
rfoot 0.83193 -23.0412
rtoes -10.7538
lfemur -66.7131 4.4889 -15.791
ltibia 38.0691
lfoot -7.1974 1.31943
ltoes -28.7593
310
root 5.26689 17.2358 11.5844 -143.022 0.862618 180.323
lowerback -9.05669 -0.358238 -6.77471
upperback 4.20691 0.463489 0.126929
thorax 9.58117 -0.180063 4.03734
lowerneck -3.59912 -0.098219 -0.80541
upperneck 10.9361 -0.808571 3.59901
head 4.25878 -0.400904 1.30351
rclavicle 3.97569e-015 3.598e-014
rhumerus -32.888 -2.46997 -79.6501
rradius 66.5962
rwrist -10.4077
rhand -5.53608 -50.0511
rfingers 7.12502
rthumb 20.2783 -439.013
lclavicle 3.97569e-015 3.598e-014
lhumerus -8.93292 -14.1885 64.504
lradius 42.1897
lwrist 7.91153
lhand -21.9136 -11.8201
lfingers 7.12502
lthumb 4.49221 18.1122
rfemur -41.0514 -0.112295 -3.98201
rtibia 61.8652
rfoot -0.195562 -22.4153
rtoes -11.4574
lfemur -65.9494 4.19219 -16.2334
ltibia 37.6799
lfoot -7.35422 1.32069
ltoes -27.7829
311
root 5.20333 17.2686 11.5243 -143.227 0.997281 180.174
lowerback -9.03785 -0.511528 -6.93982
upperback 4.15497 0.27213 0.15365
thorax 9.53804 -0.281642 4.12628
lowerneck -3.62324 -0.410808 -0.877918
upperneck 11.3611 -0.486827 3.29373
head 4.40776 0.0205581 1.25434
rclavicle 2.18663e-015 1.31198e-014
rhumerus -33.2068 -2.42207 -79.4553
rradius 65.9543
rwrist -10.5423
rhand -5.39707 -50.2964
rfingers 7.12502
rthumb 20.4119 -439.244
lclavicle 2.18663e-015 1.31198e-014
lhumerus -9.597 -14.3412 65.117
lradius 42.1169
lwrist 7.60849
lhand -22.2541 -12.2607
lfingers 7.12502
lthumb 4.1634 17.6784
rfemur -42.4551 -0.05141 -3.184
rtibia 63.7346
rfoot -1.24709 -21.8717
rtoes -13.7571
lfemur -65.1938 3.82986 -16.576
ltibia 37.228
lfoot -7.45661 1.3726
ltoes -27.6208
312
root 5.14361 17.3004 11.462 -143.421 1.04912 180.124
lowerback -9.29716 -0.582795 -6.91508
upperback 4.28659 0.208906 0.107615
thorax 9.84591 -0.321318 4.05443
lowerneck -3.70614 -0.433947 -0.801624
upperneck 11.2368 -0.535673 3.3129
head 4.38012 -0.0042775 1.24339
rclavicle 5.36719e-015 2.38542e-015
rhumerus -33.3195 -2.71883 -79.3467
rradius 65.2209
rwrist -10.4885
rhand -5.67332 -50.1644
rfingers 7.12502
rthumb 20.1464 -439.14
lclavicle 5.36719e-015 2.38542e-015
lhumerus -9.73113 -14.5598 65.5197
lradius 41.8891
lwrist 7.13887
lhand -22.1209 -12.8047
lfingers 7.12502
lthumb 4.29198 17.1318
rfemur -43.8288 0.204465 -2.23401
rtibia 65.4589
rfoot -2.27588 -21.4835
rtoes -15.0957
lfemur -64.4552 3.48569 -16.7606
ltibia 36.7886
lfoot -7.5784 1.43286
ltoes -27.7194
313
root 5.08758 17.3306 11.4016 -143.638 1.10125 180.047
lowerback -9.50265 -0.668476 -7.00709
upperback 4.14713 0.111948 0.0946204
thorax 9.82592 -0.371999 4.07578
lowerneck -3.15688 -0.566986 -0.84255
upperneck 11.4844 -0.699908 3.56001
head 4.36708 -0.060524 1.3281
rclavicle -7.7526e-015 -3.4191e-014
rhumerus -33.8652 -2.95364 -79.1807
rradius 64.3048
rwrist -10.487
rhand -6.08254 -50.1214
rfingers 7.12502
rthumb 19.753 -439.138
lclavicle -7.7526e-015 -3.4191e-014
lhumerus -10.5468 -14.984 66.1316
lradius 41.7211
lwrist 6.54581
lhand -22.1741 -12.7087
lfingers 7.12502
lthumb 4.24063 17.2289
rfemur -45.1361 0.529009 -1.31517
rtibia 66.9439
rfoot -3.15054 -21.0755
rtoes -15.3179
lfemur -63.7384 3.12521 -16.9439
ltibia 36.4282
lfoot -7.73193 1.49179
ltoes -27.3444
314
root 5.03227 17.3598 11.3474 -143.817 1.23441 179.839
lowerback -9.47447 -0.82932 -7.1873
upperback 4.12909 -0.0784515 0.0728705
thorax 9.81674 -0.47289 4.11987
lowerneck -3.28397 -0.521276 -1.01392
upperneck 11.6434 -0.636036 3.66908
head 4.45136 -0.0266702 1.4022
rclavicle -5.1684e-015 -7.15625e-015
rhumerus -33.8859 -3.09672 -79.0372
rradius 63.2721
rwrist -10.3515
rhand -6.32356 -49.8155
rfingers 7.12502
rthumb 19.5213 -438.855
lclavicle -5.1684e-015 -7.15625e-015
lhumerus -11.1185 -15.0692 66.6853
lradius 41.5573
lwrist 6.3064
lhand -22.5693 -12.9443
lfingers 7.12502
lthumb 3.85902 17.0005
rfemur -46.5585 0.737901 -0.523405
rtibia 68.4429
rfoot -3.94074 -20.603
rtoes -16.9756
lfemur -63.0788 2.70809 -17.2512
ltibia 36.1221
lfoot -7.90909 1.49251
ltoes -25.0654
315
root 4.97803 17.3902 11.2914 -144.033 1.33363 179.7
lowerback -9.51779 -0.905235 -7.27779
upperback 3.99306 -0.165463 -0.0054633
thorax 9.70359 -0.510835 4.07059
lowerneck -3.00426 -0.458196 -0.837929
upperneck 12.0852 -0.512505 3.54501
head 4.55017 0.055835 1.33971
rclavicle 2.78299e-015 1.98785e-015
rhumerus -34.5788 -3.43958 -78.9162
rradius 62.5526
rwrist -10.0263
rhand -6.08439 -48.8512
rfingers 7.12502
rthumb 19.7512 -437.868
lclavicle 2.78299e-015 1.98785e-015
lhumerus -11.8643 -15.4512 67.1856
lradius 41.4368
lwrist 5.97116
lhand -22.2577 -13.2424
lfingers 7.12502
lthumb 4.15991 16.6968
rfemur -47.8651 1.05543 0.368018
rtibia 69.7162
rfoot -4.991 -20.1949
rtoes -18.619
lfemur -62.3565 2.31197 -17.4557
ltibia 35.7535
lfoot -8.06123 1.55616
ltoes -22.9016
316
root 4.92634 17.4186 11.2352 -144.21 1.38042 179.664
lowerback -9.59837 -1.00524 -7.28239
upperback 4.02664 -0.288701 -0.00979462
thorax 9.8048 -0.574333 4.04633
lowerneck -3.15775 -0.409028 -0.72048
upperneck 12.1902 -0.440298 3.38295
head 4.61532 0.0905284 1.26906
rclavicle -1.35174e-014 -1.98785e-014
rhumerus -34.8386 -3.77955 -78.8215
rradius 62.0553
rwrist -9.64238
rhand -5.72451 -49.7217
rfingers 7.12502
rthumb 20.0972 -438.702
lclavicle -1.35174e-014 -1.98785e-014
lhumerus -12.2528 -15.4953 67.6542
lradius 41.2098
lwrist 5.46279
lhand -21.18 -12.9564
lfingers 7.12502
lthumb 5.20055 16.9598
rfemur -49.1562 1.41802 1.37595
rtibia 70.7536
rfoot -6.17737 -19.7278
rtoes -19.5788
lfemur -61.6758 2.0148 -17.5868
ltibia 35.2964
lfoot -8.17271 1.64305
ltoes -22.2843
317
root 4.87561 17.4458 11.1826 -144.379 1.41266 179.519
lowerback -9.59606 -1.15573 -7.37107
upperback 3.98166 -0.479854 -0.016456
thorax 9.78043 -0.669733 4.05456
lowerneck -3.23002 -0.420351 -0.705555
upperneck 12.3694 -0.447419 3.34046
head 4.69564 0.0911104 1.25463
rclavicle 1.98785e-015 1.43125e-014
rhumerus -35.1579 -4.13321 -78.7089
rradius 61.4539
rwrist -9.32396
rhand -5.88054 -50.5031
rfingers 7.12502
rthumb 19.9472 -439.499
lclavicle 1.98785e-015 1.43125e-014
lhumerus -12.8796 -15.6209 68.2255
lradius 41.0322
lwrist 5.37938
lhand -20.9027 -12.8766
lfingers 7.12502
lthumb 5.46834 17.0329
rfemur -50.4563 1.61574 2.3162
rtibia 71.7759
rfoot -7.284 -19.0834
rtoes -20.1862
lfemur -61.0341 1.72847 -17.9049
ltibia 34.8853
lfoot -8.24231 1.52428
ltoes -21.2201
